<svg width="40" height="41" viewBox="0 0 40 41" fill="none" xmlns="http://www.w3.org/2000/svg">
<rect y="0.998047" width="40" height="40" rx="5" fill="#1E2025"/>
<path d="M33.3125 26.0605L21.5586 17.248L24.3125 15.1855C24.4283 15.0976 24.5223 14.9842 24.5873 14.8542C24.6523 14.7242 24.6866 14.5809 24.6875 14.4355C24.6875 13.1923 24.1936 12.0001 23.3146 11.121C22.4355 10.2419 21.2432 9.74805 20 9.74805C18.7568 9.74805 17.5645 10.2419 16.6854 11.121C15.8064 12.0001 15.3125 13.1923 15.3125 14.4355C15.3125 14.6842 15.4113 14.9226 15.5871 15.0985C15.7629 15.2743 16.0014 15.373 16.25 15.373C16.4986 15.373 16.7371 15.2743 16.9129 15.0985C17.0887 14.9226 17.1875 14.6842 17.1875 14.4355C17.187 13.7279 17.4532 13.0461 17.9331 12.5261C18.413 12.0061 19.0713 11.6861 19.7767 11.6299C20.482 11.5737 21.1827 11.7855 21.7388 12.223C22.295 12.6604 22.6658 13.2915 22.7773 13.9902L19.4492 16.4863L19.4258 16.5098L6.6875 26.0605C6.37268 26.2967 6.14012 26.6259 6.02279 27.0015C5.90545 27.3771 5.90927 27.7801 6.03372 28.1535C6.15816 28.5268 6.39692 28.8515 6.71617 29.0816C7.03542 29.3117 7.41897 29.4355 7.8125 29.4355H32.1875C32.581 29.4355 32.9646 29.3117 33.2838 29.0816C33.6031 28.8515 33.8418 28.5268 33.9663 28.1535C34.0907 27.7801 34.0946 27.3771 33.9772 27.0015C33.8599 26.6259 33.6273 26.2967 33.3125 26.0605ZM7.8125 27.5605L20 18.4199L32.1875 27.5605H7.8125Z" fill="white"/>
</svg>
