<svg width="82" height="82" viewBox="0 0 82 82" fill="none" xmlns="http://www.w3.org/2000/svg">
<circle cx="41" cy="41" r="41" fill="#1E2025"/>
<rect x="28.2109" y="52.457" width="32.7189" height="1.69116" transform="rotate(-32.7601 28.2109 52.457)" fill="white"/>
<rect x="23.0195" y="42.5391" width="34.5238" height="1.69081" transform="rotate(-30.6698 23.0195 42.5391)" fill="white"/>
<path fill-rule="evenodd" clip-rule="evenodd" d="M52.7158 24.9118C52.7163 24.9115 52.7168 24.9112 52.7173 24.9109C55.5205 23.2925 59.105 24.2529 60.7234 27.0561C62.3418 29.8593 61.3814 33.4438 58.5782 35.0622C58.5777 35.0625 58.5772 35.0628 58.5766 35.0631L57.733 33.6018C57.7337 33.6014 57.7344 33.601 57.7352 33.6005C59.7319 32.4477 60.416 29.8945 59.2632 27.8978C58.1104 25.9011 55.5572 25.2169 53.5605 26.3697C53.5597 26.3702 53.559 26.3706 53.5583 26.371L52.7158 24.9118Z" fill="white"/>
<path fill-rule="evenodd" clip-rule="evenodd" d="M52.7158 24.9118C52.7163 24.9115 52.7168 24.9112 52.7173 24.9109C55.5205 23.2925 59.105 24.2529 60.7234 27.0561C62.3418 29.8593 61.3814 33.4438 58.5782 35.0622C58.5777 35.0625 58.5772 35.0628 58.5766 35.0631L57.733 33.6018C57.7337 33.6014 57.7344 33.601 57.7352 33.6005C59.7319 32.4477 60.416 29.8945 59.2632 27.8978C58.1104 25.9011 55.5572 25.2169 53.5605 26.3697C53.5597 26.3702 53.559 26.3706 53.5583 26.371L52.7158 24.9118Z" fill="white"/>
<path fill-rule="evenodd" clip-rule="evenodd" d="M26.3867 54.5234C29.9615 54.5234 32.8594 51.6255 32.8594 48.0508C32.8594 44.476 29.9615 41.5781 26.3867 41.5781C22.812 41.5781 19.9141 44.476 19.9141 48.0508C19.9141 51.6255 22.812 54.5234 26.3867 54.5234ZM26.389 52.0228C28.5814 52.0228 30.3587 50.2455 30.3587 48.053C30.3587 45.8606 28.5814 44.0833 26.389 44.0833C24.1965 44.0833 22.4192 45.8606 22.4192 48.053C22.4192 50.2455 24.1965 52.0228 26.389 52.0228Z" fill="white"/>
<path fill-rule="evenodd" clip-rule="evenodd" d="M56.2844 30.4457C56.909 30.9527 57.8061 31.0509 58.5443 30.6247C59.4975 30.0744 59.826 28.8575 59.2809 27.9027C59.2811 27.9026 59.2813 27.9025 59.2815 27.9023L60.3087 28.1166L60.5 31.5272L58.5668 35.0701L56.5667 36.2249C55.5575 35.1498 54.5682 32.8388 56.2844 30.4457Z" fill="white"/>
<path fill-rule="evenodd" clip-rule="evenodd" d="M52.711 24.9297L50.7109 26.0844C51.1372 27.4955 52.643 29.5068 55.5716 29.2188C55.4405 28.4216 55.804 27.5909 56.545 27.163C57.5011 26.611 58.7236 26.9386 59.2756 27.8946C59.2756 27.8947 59.2756 27.8947 59.2756 27.8947C59.2757 27.8947 59.2758 27.8947 59.2758 27.8946L59.6039 26.8979L56.7458 25.027L52.711 24.9297Z" fill="white"/>
</svg>
